<?xml version="1.0" standalone="no"?>
<!DOCTYPE svg PUBLIC "-//W3C//DTD SVG 20010904//EN"
 "http://www.w3.org/TR/2001/REC-SVG-20010904/DTD/svg10.dtd">
<svg version="1.0" xmlns="http://www.w3.org/2000/svg"
 width="512.000000pt" height="512.000000pt" viewBox="0 0 512.000000 512.000000"
 preserveAspectRatio="xMidYMid meet">
<metadata>
Created by potrace 1.14, written by Peter Selinger 2001-2017
</metadata>
<g transform="translate(0.000000,512.000000) scale(0.100000,-0.100000)"
fill="#000000" stroke="none">
<path d="M10 3880 c0 -3 296 -301 657 -662 l658 -658 -663 -663 -662 -662 706
0 706 0 60 65 c33 36 111 119 173 185 62 66 125 134 140 150 15 17 55 59 89
95 163 174 412 441 476 510 18 19 79 85 135 145 182 195 169 174 128 215 -24
23 -176 185 -259 275 -15 17 -79 86 -143 154 -64 68 -127 135 -140 150 -13 14
-51 55 -85 91 -34 36 -95 101 -136 145 -115 124 -329 353 -387 414 l-52 56
-700 0 c-386 0 -701 -2 -701 -5z"/>
<path d="M2489 3881 c-6 -2 285 -300 647 -662 l659 -659 -660 -660 c-363 -363
-655 -661 -650 -661 6 -1 322 -2 703 -3 l694 -1 121 129 c67 71 129 137 138
147 9 10 74 81 145 156 71 75 156 166 189 202 33 35 69 74 80 85 11 12 81 87
155 166 74 80 139 150 145 156 5 6 62 66 125 134 63 68 121 129 128 137 11 11
2 25 -55 85 -37 40 -96 102 -130 138 -34 36 -70 75 -81 88 -11 12 -71 77 -135
145 -148 157 -171 182 -297 318 -58 62 -114 122 -125 133 -11 12 -76 82 -145
156 -69 74 -155 166 -192 205 l-67 70 -690 0 c-380 0 -696 -2 -702 -4z"/>
</g>
</svg>
